<svg xmlns="http://www.w3.org/2000/svg" viewBox="0 0 42.83 30.11"><defs><style>.cls-1{fill:#00a504;}.cls-2{fill:#a2aaad;}</style></defs><g id="Layer_2" data-name="Layer 2"><g id="Слой_2" data-name="Слой 2"><path d="M37.84,16.36v-15A1.54,1.54,0,0,0,36.17,0H1.67A1.54,1.54,0,0,0,0,1.36v15a1.54,1.54,0,0,0,1.67,1.36h34.5a1.54,1.54,0,0,0,1.67-1.36Z"/><path d="M35.27,6.36H45.4a.82.82,0,0,1,.82.82v4.17a0,0,0,0,1,0,0H34.45a0,0,0,0,1,0,0V7.18A.82.82,0,0,1,35.27,6.36Z" transform="translate(49.19 -31.47) rotate(90)"/><polygon class="cls-1" points="7.47 1.81 11.44 16.02 2.26 16.02 2.26 1.81 7.47 1.81"/><polygon class="cls-1" points="30.37 16.02 26.4 1.81 35.58 1.81 35.58 16.02 30.37 16.02"/><polygon class="cls-1" points="12.86 16.02 8.89 1.81 16.18 1.81 20.19 16.02 12.86 16.02"/><polygon class="cls-1" points="21.61 16.02 17.65 1.81 24.94 1.81 28.95 16.02 21.61 16.02"/><path class="cls-2" d="M6,21v9H4V22.65H2.17V21Z"/><path class="cls-2" d="M9.46,29.56A3.76,3.76,0,0,1,8.09,28a6.6,6.6,0,0,1,0-5,3.57,3.57,0,0,1,3.36-2.15A3.57,3.57,0,0,1,14.8,23a5.79,5.79,0,0,1,.49,2.49A5.81,5.81,0,0,1,14.8,28a3.69,3.69,0,0,1-1.37,1.59,3.6,3.6,0,0,1-2,.55A3.61,3.61,0,0,1,9.46,29.56Zm3.28-1.91a4,4,0,0,0,.46-2.18,4,4,0,0,0-.46-2.18,1.48,1.48,0,0,0-1.29-.7,1.46,1.46,0,0,0-1.28.7,4,4,0,0,0-.47,2.18,4,4,0,0,0,.47,2.18,1.46,1.46,0,0,0,1.28.71A1.49,1.49,0,0,0,12.74,27.65Z"/><path class="cls-2" d="M18.16,29.56A3.74,3.74,0,0,1,16.8,28a5.81,5.81,0,0,1-.49-2.5A5.79,5.79,0,0,1,16.8,23a3.66,3.66,0,0,1,6.7,0,5.79,5.79,0,0,1,.5,2.49,5.81,5.81,0,0,1-.5,2.5,3.74,3.74,0,0,1-1.36,1.59,3.61,3.61,0,0,1-2,.55A3.66,3.66,0,0,1,18.16,29.56Zm3.28-1.91a4,4,0,0,0,.47-2.18,4,4,0,0,0-.47-2.18,1.46,1.46,0,0,0-1.29-.7,1.44,1.44,0,0,0-1.27.7,3.94,3.94,0,0,0-.47,2.18,3.92,3.92,0,0,0,.47,2.18,1.45,1.45,0,0,0,1.27.71A1.47,1.47,0,0,0,21.44,27.65Z"/><path class="cls-2" d="M28.31,25.16a2.53,2.53,0,0,1-.62-1.8,2.51,2.51,0,0,1,.62-1.8,2.08,2.08,0,0,1,1.61-.68,2.06,2.06,0,0,1,1.6.68,2.55,2.55,0,0,1,.61,1.8,2.57,2.57,0,0,1-.61,1.8,2.06,2.06,0,0,1-1.6.67A2.08,2.08,0,0,1,28.31,25.16Zm2.29-.74a1.82,1.82,0,0,0,.25-1.06,1.86,1.86,0,0,0-.25-1.07.77.77,0,0,0-.68-.36.8.8,0,0,0-.68.37A1.84,1.84,0,0,0,29,23.36a1.81,1.81,0,0,0,.26,1.05.82.82,0,0,0,1.36,0ZM35.26,21h1.53l-6.13,9H29.13Zm-.4,8.77a2.06,2.06,0,0,1-.79-.86,2.9,2.9,0,0,1-.28-1.31,2.87,2.87,0,0,1,.28-1.31,2.08,2.08,0,0,1,.79-.87,2.22,2.22,0,0,1,1.15-.3,2.11,2.11,0,0,1,1.61.68,2.92,2.92,0,0,1,0,3.6,2.11,2.11,0,0,1-1.61.67A2.22,2.22,0,0,1,34.86,29.76Zm1.83-1.11a1.87,1.87,0,0,0,.25-1.06,1.85,1.85,0,0,0-.25-1.06.82.82,0,0,0-1.36,0,1.86,1.86,0,0,0-.26,1.07,1.82,1.82,0,0,0,.26,1.06A.79.79,0,0,0,36,29,.77.77,0,0,0,36.69,28.65Z"/></g></g></svg>