<svg xmlns="http://www.w3.org/2000/svg" viewBox="0 0 40.56 30.11"><defs><style>.cls-1{fill:#a2aaad;}.cls-2{fill:#00a504;}.cls-3{fill:#fff;}</style></defs><g id="Layer_2" data-name="Layer 2"><g id="Слой_2" data-name="Слой 2"><path class="cls-1" d="M10.9,28.27V30H4.11V28.61l3.47-3.27a3.9,3.9,0,0,0,.74-.9,1.61,1.61,0,0,0,.19-.75,1,1,0,0,0-.36-.83,1.75,1.75,0,0,0-1.07-.29A2.47,2.47,0,0,0,6,22.8a2,2,0,0,0-.79.67l-1.52-1a3.65,3.65,0,0,1,1.45-1.23,4.93,4.93,0,0,1,2.12-.44A4.34,4.34,0,0,1,9,21.16a2.62,2.62,0,0,1,1.16.92,2.4,2.4,0,0,1,.42,1.41,3.09,3.09,0,0,1-.31,1.37A5.31,5.31,0,0,1,9.1,26.32L7,28.27Z"/><path class="cls-1" d="M18.46,28.27V30H11.68V28.61l3.46-3.27a3.66,3.66,0,0,0,.74-.9,1.61,1.61,0,0,0,.19-.75,1,1,0,0,0-.36-.83,1.73,1.73,0,0,0-1.07-.29,2.5,2.5,0,0,0-1.07.23,2,2,0,0,0-.79.67l-1.51-1a3.58,3.58,0,0,1,1.45-1.23,4.88,4.88,0,0,1,2.11-.44,4.3,4.3,0,0,1,1.75.33,2.71,2.71,0,0,1,1.17.92,2.46,2.46,0,0,1,.41,1.41,3.22,3.22,0,0,1-.3,1.37,5.58,5.58,0,0,1-1.2,1.46L14.6,28.27Z"/><path class="cls-1" d="M21.15,29.56A3.67,3.67,0,0,1,19.79,28a5.81,5.81,0,0,1-.5-2.5,5.79,5.79,0,0,1,.5-2.49,3.64,3.64,0,0,1,1.36-1.6,3.69,3.69,0,0,1,2-.55A3.54,3.54,0,0,1,26.49,23,5.79,5.79,0,0,1,27,25.47a5.81,5.81,0,0,1-.49,2.5,3.74,3.74,0,0,1-1.36,1.59,3.66,3.66,0,0,1-2,.55A3.61,3.61,0,0,1,21.15,29.56Zm3.28-1.91a4,4,0,0,0,.46-2.18,4,4,0,0,0-.46-2.18,1.48,1.48,0,0,0-1.29-.7,1.46,1.46,0,0,0-1.28.7,4,4,0,0,0-.47,2.18,4,4,0,0,0,.47,2.18,1.46,1.46,0,0,0,1.28.71A1.49,1.49,0,0,0,24.43,27.65Z"/><path class="cls-1" d="M36.87,21,33,30h-2l-3.87-9H29.3L32,27.4,34.8,21Z"/><rect class="cls-2" width="40.56" height="17.72" rx="8.86"/><circle class="cls-3" cx="31.28" cy="8.86" r="7.56"/><path class="cls-3" d="M13.52,6h-.74a.21.21,0,0,1,0-.06c0-.67,0-1.33,0-2a1.29,1.29,0,0,0-.16-.57.73.73,0,0,0-.86-.3.8.8,0,0,0-.57.78V6H9.37V4a1.82,1.82,0,0,0,0-.32.78.78,0,0,0-.88-.6A.8.8,0,0,0,7.78,4c0,.63,0,1.26,0,1.89V6h-1c-.19,0-.26.07-.26.26,0,.79,0,1.59,0,2.39A3.46,3.46,0,0,0,9.23,12v1.66a1,1,0,0,0,2.07,0V12h0A3.52,3.52,0,0,0,14,8.45V6.55C14,6,14,6,13.52,6Z"/></g></g></svg>