<svg width="41" height="31" viewBox="0 0 41 31" fill="none" xmlns="http://www.w3.org/2000/svg">
<g clip-path="url(#clip0)">
<path d="M10.8999 28.71V30.44H4.10994V29.05L7.57994 25.78C7.87028 25.5188 8.11973 25.2154 8.31994 24.88C8.4433 24.6492 8.50851 24.3917 8.50994 24.13C8.51939 23.9731 8.49172 23.8162 8.42917 23.672C8.36662 23.5278 8.27096 23.4003 8.14994 23.3C7.83292 23.0935 7.4575 22.9952 7.07994 23.02C6.70797 23.0111 6.33878 23.0863 5.99994 23.24C5.68234 23.3901 5.40987 23.6212 5.20994 23.91L3.68994 22.91C4.05612 22.3791 4.55643 21.9547 5.13994 21.68C5.80527 21.3781 6.5294 21.2278 7.25994 21.24C7.85856 21.2387 8.45098 21.3613 8.99994 21.6C9.46702 21.7888 9.86977 22.1082 10.1599 22.52C10.4441 22.9344 10.591 23.4276 10.5799 23.93C10.5831 24.4044 10.4771 24.8732 10.2699 25.3C9.96943 25.8521 9.57328 26.3464 9.09994 26.76L6.99994 28.71H10.8999Z" fill="#A2AAAD"/>
<path d="M18.46 28.71V30.44H11.68V29.05L15.14 25.78C15.4332 25.5214 15.683 25.2176 15.88 24.88C16.0034 24.6492 16.0686 24.3917 16.07 24.13C16.0795 23.9731 16.0518 23.8162 15.9892 23.672C15.9267 23.5278 15.831 23.4003 15.71 23.3C15.3936 23.0921 15.0177 22.9937 14.64 23.02C14.2715 23.0136 13.9061 23.0887 13.57 23.24C13.2524 23.3901 12.9799 23.6212 12.78 23.91L11.27 22.91C11.6336 22.3768 12.1347 21.9518 12.72 21.68C13.3818 21.3779 14.1027 21.2276 14.83 21.24C15.43 21.2267 16.0261 21.3391 16.58 21.57C17.0482 21.7615 17.4535 22.0801 17.75 22.49C18.027 22.9073 18.1701 23.3992 18.16 23.9C18.1619 24.3732 18.0595 24.8409 17.86 25.27C17.5459 25.8214 17.1401 26.3151 16.66 26.73L14.6 28.71H18.46Z" fill="#A2AAAD"/>
<path d="M21.1502 30C20.5547 29.6234 20.0821 29.0813 19.7902 28.44C19.4405 27.654 19.2697 26.8001 19.2902 25.94C19.2706 25.0832 19.4413 24.2328 19.7902 23.45C20.0765 22.7946 20.5496 22.2382 21.1502 21.85C21.7506 21.4792 22.4447 21.2883 23.1502 21.3C23.857 21.2824 24.5528 21.4768 25.1481 21.8582C25.7434 22.2396 26.2108 22.7906 26.4902 23.44C26.8397 24.2159 27.0138 25.0592 27.0002 25.91C27.0238 26.7693 26.8565 27.6232 26.5102 28.41C26.2291 29.0602 25.7598 29.6115 25.1628 29.9929C24.5658 30.3742 23.8684 30.5683 23.1602 30.55C22.4507 30.5682 21.7516 30.3769 21.1502 30ZM24.4302 28.09C24.7869 27.4216 24.9464 26.6656 24.8902 25.91C24.9464 25.1544 24.7869 24.3984 24.4302 23.73C24.2946 23.5112 24.1043 23.3316 23.8781 23.2088C23.6519 23.0861 23.3975 23.0244 23.1402 23.03C22.8842 23.0242 22.6312 23.0858 22.4065 23.2087C22.1819 23.3315 21.9935 23.5113 21.8602 23.73C21.5001 24.3974 21.3371 25.1535 21.3902 25.91C21.3371 26.6665 21.5001 27.4226 21.8602 28.09C21.9922 28.3105 22.1801 28.4923 22.4048 28.617C22.6296 28.7417 22.8833 28.8048 23.1402 28.8C23.3983 28.8035 23.6529 28.74 23.8791 28.6155C24.1052 28.491 24.2951 28.3099 24.4302 28.09Z" fill="#A2AAAD"/>
<path d="M36.8699 21.44L32.9999 30.44H30.9999L27.1299 21.44H29.2999L31.9999 27.84L34.7999 21.44H36.8699Z" fill="#A2AAAD"/>
<path d="M31.7 0.440002H8.86C3.96676 0.440002 0 4.40676 0 9.3C0 14.1932 3.96676 18.16 8.86 18.16H31.7C36.5932 18.16 40.56 14.1932 40.56 9.3C40.56 4.40676 36.5932 0.440002 31.7 0.440002Z" fill="#DB1F00"/>
<path d="M9.45014 16.86C13.6254 16.86 17.0101 13.4753 17.0101 9.3C17.0101 5.12473 13.6254 1.74 9.45014 1.74C5.27486 1.74 1.89014 5.12473 1.89014 9.3C1.89014 13.4753 5.27486 16.86 9.45014 16.86Z" fill="white"/>
<path d="M27.7199 4.68V4.1C27.7185 4.02563 27.7321 3.95173 27.7596 3.88263C27.7871 3.81353 27.8282 3.75061 27.8803 3.69754C27.9325 3.64448 27.9946 3.60233 28.0632 3.57357C28.1318 3.5448 28.2055 3.52999 28.2799 3.53H30.6399C30.7134 3.5313 30.786 3.54708 30.8534 3.57643C30.9209 3.60579 30.9819 3.64814 31.033 3.70107C31.084 3.754 31.1242 3.81648 31.1511 3.88493C31.178 3.95338 31.1912 4.02646 31.1899 4.1V4.68H31.5199C31.6962 4.66477 31.8735 4.66477 32.0499 4.68C32.301 4.73932 32.5242 4.88278 32.6825 5.08653C32.8407 5.29027 32.9245 5.54205 32.9199 5.8C32.9199 6.73 32.9199 7.67 32.9199 8.6V13.86C32.9225 14.014 32.8945 14.167 32.8374 14.3101C32.7803 14.4531 32.6953 14.5834 32.5873 14.6932C32.4793 14.803 32.3505 14.8903 32.2085 14.9498C32.0664 15.0094 31.9139 15.04 31.7599 15.04H27.1799C26.9306 15.0458 26.686 14.9712 26.4824 14.8271C26.2789 14.683 26.1272 14.4771 26.0499 14.24C26.0097 14.1173 25.9895 13.9891 25.9899 13.86V5.86C25.9805 5.57641 26.0781 5.29966 26.2634 5.08475C26.4487 4.86984 26.708 4.73249 26.9899 4.7C27.1796 4.68502 27.3702 4.68502 27.5599 4.7L27.7199 4.68ZM29.4599 12.68L31.1799 9.24H29.4499V7L27.7199 10.44H29.4599V12.68Z" fill="white"/>
</g>
<defs>
<clipPath id="clip0">
<rect width="40.56" height="30.11" fill="white" transform="translate(0 0.440002)"/>
</clipPath>
</defs>
</svg>
