<svg width="29" height="25" viewBox="0 0 29 25" fill="none" xmlns="http://www.w3.org/2000/svg">
<g clip-path="url(#clip0)">
<path d="M13.2398 19.79C13.1373 19.6925 13.0567 19.5743 13.0033 19.4433C12.9498 19.3123 12.9248 19.1714 12.9298 19.03C12.9262 18.8903 12.9519 18.7513 13.0053 18.6221C13.0587 18.493 13.1386 18.3764 13.2398 18.28C13.3449 18.1799 13.4689 18.1018 13.6046 18.0503C13.7402 17.9988 13.8848 17.9749 14.0298 17.98C14.1705 17.9737 14.3109 17.9971 14.4419 18.0488C14.5728 18.1005 14.6914 18.1793 14.7898 18.28C14.8911 18.3764 14.9709 18.493 15.0243 18.6221C15.0777 18.7513 15.1034 18.8903 15.0998 19.03C15.1049 19.1714 15.0798 19.3123 15.0264 19.4433C14.973 19.5743 14.8923 19.6925 14.7898 19.79C14.6914 19.8907 14.5728 19.9695 14.4419 20.0212C14.3109 20.0729 14.1705 20.0963 14.0298 20.09C13.8848 20.0951 13.7402 20.0712 13.6046 20.0197C13.4689 19.9682 13.3449 19.8901 13.2398 19.79ZM12.9998 10.44H14.9998L14.6598 16.8H13.3498L12.9998 10.44Z" fill="#DB1F00"/>
<path d="M27.8998 23.57L14.8098 0.900002C14.7288 0.760959 14.6128 0.645587 14.4733 0.565398C14.3338 0.485209 14.1757 0.443008 14.0148 0.443008C13.8539 0.443008 13.6958 0.485209 13.5563 0.565398C13.4168 0.645587 13.3008 0.760959 13.2198 0.900002L0.119798 23.57C0.0396304 23.7108 -0.00233882 23.8702 -0.00195045 24.0323C-0.00156209 24.1943 0.0411704 24.3535 0.122012 24.4939C0.202854 24.6344 0.318998 24.7513 0.458934 24.8331C0.59887 24.9148 0.757739 24.9586 0.919798 24.96H27.0998C27.2619 24.9586 27.4207 24.9148 27.5607 24.8331C27.7006 24.7513 27.8167 24.6344 27.8976 24.4939C27.9784 24.3535 28.0212 24.1943 28.0215 24.0323C28.0219 23.8702 27.98 23.7108 27.8998 23.57ZM23.1098 22.31H4.9098C4.79169 22.3139 4.6748 22.285 4.5721 22.2265C4.4694 22.1681 4.38488 22.0823 4.32793 21.9788C4.27098 21.8752 4.24381 21.7579 4.24944 21.6399C4.25506 21.5218 4.29326 21.4077 4.3598 21.31L13.4598 5.55C13.5159 5.45236 13.5967 5.37124 13.6942 5.31483C13.7916 5.25842 13.9022 5.22871 14.0148 5.22871C14.1274 5.22871 14.238 5.25842 14.3354 5.31483C14.4329 5.37124 14.5137 5.45236 14.5698 5.55L23.6698 21.31C23.7332 21.4091 23.7684 21.5236 23.7719 21.6412C23.7753 21.7588 23.7468 21.8751 23.6893 21.9777C23.6318 22.0804 23.5475 22.1655 23.4455 22.224C23.3434 22.2825 23.2274 22.3122 23.1098 22.31Z" fill="#DB1F00"/>
</g>
<defs>
<clipPath id="clip0">
<rect width="28.03" height="24.52" fill="white" transform="translate(0 0.440002)"/>
</clipPath>
</defs>
</svg>
