<svg width="20" height="26" viewBox="0 0 20 26" fill="none" xmlns="http://www.w3.org/2000/svg">
<path d="M18.525 9.13324L10.825 1.43323C10.525 1.13323 10.025 0.933228 9.525 0.933228C9.025 0.933228 8.62498 1.13323 8.22498 1.43323L0.525 9.13324C-0.175 9.83324 -0.175 10.9332 0.525 11.6332C1.225 12.3332 2.325 12.3332 3.025 11.6332L7.72498 6.93323V23.7332C7.72498 24.7332 8.525 25.5332 9.525 25.5332C10.525 25.5332 11.325 24.7332 11.325 23.7332V6.93323L16.025 11.6332C16.725 12.3332 17.825 12.3332 18.525 11.6332C19.225 10.9332 19.225 9.83324 18.525 9.13324Z" fill="#DB0000"/>
</svg>
