<svg width="20" height="26" viewBox="0 0 20 26" fill="none" xmlns="http://www.w3.org/2000/svg">
<path d="M18.525 14.3015C17.825 13.6015 16.725 13.6015 16.025 14.3015L11.325 19.0015V2.20154C11.325 1.20154 10.525 0.40152 9.525 0.40152C8.525 0.40152 7.72498 1.20154 7.72498 2.20154V19.0015L3.025 14.3015C2.325 13.6015 1.225 13.6015 0.525 14.3015C-0.175 15.0015 -0.175 16.1015 0.525 16.8015L8.22498 24.5015C8.52498 24.8015 9.025 25.0015 9.525 25.0015C10.025 25.0015 10.425 24.8015 10.825 24.5015L18.525 16.8015C19.225 16.2015 19.225 15.0015 18.525 14.3015Z" fill="#DB0000"/>
</svg>
