<svg width="43" height="31" viewBox="0 0 43 31" fill="none" xmlns="http://www.w3.org/2000/svg">
<g clip-path="url(#clip0)">
<path d="M37.84 16.91V1.91C37.7946 1.51003 37.5944 1.14372 37.2823 0.889523C36.9701 0.635329 36.5709 0.513456 36.17 0.550005H1.67C1.26912 0.513456 0.869857 0.635329 0.557721 0.889523C0.245586 1.14372 0.0453883 1.51003 0 1.91L0 16.91C0.0453883 17.31 0.245586 17.6763 0.557721 17.9305C0.869857 18.1847 1.26912 18.3066 1.67 18.27H36.17C36.5709 18.3066 36.9701 18.1847 37.2823 17.9305C37.5944 17.6763 37.7946 17.31 37.84 16.91Z" fill="black"/>
<path d="M42.8301 4.35001V14.48C42.8301 14.6975 42.7437 14.9061 42.5899 15.0598C42.4361 15.2136 42.2276 15.3 42.0101 15.3H37.8401V3.53001L42.0101 3.53001C42.2276 3.53001 42.4361 3.6164 42.5899 3.77018C42.7437 3.92396 42.8301 4.13253 42.8301 4.35001Z" fill="black"/>
<path d="M7.58988 2.36001L11.5599 16.57H2.37988V2.36001H7.58988Z" fill="#FF6700"/>
<path d="M13.9998 28.82V30.55H7.2098V29.16L10.6698 25.89C10.9629 25.6314 11.2128 25.3276 11.4098 24.99C11.5332 24.7592 11.5984 24.5017 11.5998 24.24C11.6093 24.0831 11.5816 23.9262 11.519 23.782C11.4565 23.6378 11.3608 23.5103 11.2398 23.41C10.924 23.2007 10.5476 23.1022 10.1698 23.13C9.80119 23.1226 9.43558 23.1977 9.0998 23.35C8.7822 23.5001 8.50973 23.7312 8.3098 24.02L6.7998 23.02C7.16343 22.4868 7.66444 22.0618 8.2498 21.79C8.91155 21.4879 9.63247 21.3376 10.3598 21.35C10.9598 21.3367 11.5559 21.4491 12.1098 21.68C12.578 21.8715 12.9833 22.1902 13.2798 22.6C13.5568 23.0173 13.6999 23.5092 13.6898 24.01C13.6917 24.4832 13.5892 24.9509 13.3898 25.38C13.0757 25.9314 12.6699 26.4251 12.1898 26.84L10.1298 28.79L13.9998 28.82Z" fill="#A2AAAD"/>
<path d="M20.7302 25.66C21.0212 25.904 21.2533 26.2106 21.4092 26.557C21.565 26.9033 21.6406 27.2804 21.6302 27.66C21.6344 28.1851 21.4924 28.701 21.2202 29.15C20.9295 29.6303 20.5057 30.0159 20.0002 30.26C19.3489 30.5467 18.6414 30.6834 17.9302 30.66C17.2784 30.6669 16.6288 30.5828 16.0002 30.41C15.4432 30.2736 14.9173 30.0326 14.4502 29.7L15.2702 28.11C15.6248 28.3784 16.0244 28.5816 16.4502 28.71C16.8933 28.8502 17.3554 28.921 17.8202 28.92C18.2523 28.9453 18.6817 28.837 19.0502 28.61C19.2017 28.5221 19.3275 28.3959 19.415 28.2441C19.5024 28.0923 19.5484 27.9202 19.5484 27.745C19.5484 27.5698 19.5024 27.3977 19.415 27.2459C19.3275 27.0941 19.2017 26.9679 19.0502 26.88C18.5516 26.6313 17.9965 26.5175 17.4402 26.55H15.1402L15.6002 21.55H21.0802V23.21H17.3302L17.1902 24.92H17.9202C18.9139 24.8389 19.9054 25.1 20.7302 25.66Z" fill="#A2AAAD"/>
<path d="M25.7701 25.71C25.3406 25.2115 25.1187 24.5673 25.1501 23.91C25.1177 23.2526 25.3397 22.608 25.7701 22.11C25.9739 21.8877 26.2232 21.7119 26.501 21.5946C26.7788 21.4772 27.0786 21.4211 27.3801 21.43C27.6802 21.4199 27.9789 21.4755 28.2553 21.593C28.5317 21.7104 28.7791 21.8869 28.9801 22.11C29.4105 22.608 29.6325 23.2526 29.6001 23.91C29.6315 24.5673 29.4096 25.2115 28.9801 25.71C28.7781 25.9313 28.5304 26.1059 28.254 26.2216C27.9777 26.3373 27.6795 26.3914 27.3801 26.38C27.0793 26.3908 26.7797 26.3366 26.5019 26.2209C26.224 26.1053 25.9744 25.931 25.7701 25.71ZM28.0701 24.97C28.2551 24.6486 28.342 24.2802 28.3201 23.91C28.3416 23.5367 28.2548 23.1651 28.0701 22.84C27.9939 22.7286 27.8917 22.6375 27.7723 22.5746C27.6529 22.5116 27.52 22.4787 27.3851 22.4787C27.2501 22.4787 27.1172 22.5116 26.9979 22.5746C26.8785 22.6375 26.7763 22.7286 26.7001 22.84C26.5123 23.1603 26.4252 23.5296 26.4501 23.9C26.4264 24.2703 26.5134 24.6393 26.7001 24.96C26.7763 25.0714 26.8785 25.1625 26.9979 25.2255C27.1172 25.2884 27.2501 25.3213 27.3851 25.3213C27.52 25.3213 27.6529 25.2884 27.7723 25.2255C27.8917 25.1625 27.9939 25.0714 28.0701 24.96V24.97ZM32.7301 21.55H34.2501L28.1201 30.55H26.6001L32.7301 21.55ZM32.3201 30.32C31.9808 30.1168 31.7093 29.8175 31.5401 29.46C31.3423 29.052 31.243 28.6033 31.2501 28.15C31.2419 27.6966 31.3413 27.2476 31.5401 26.84C31.7093 26.4825 31.9808 26.1832 32.3201 25.98C32.6661 25.7694 33.0651 25.6619 33.4701 25.67C33.7715 25.6611 34.0714 25.7172 34.3492 25.8346C34.627 25.9519 34.8763 26.1277 35.0801 26.35C35.4823 26.8638 35.7009 27.4975 35.7009 28.15C35.7009 28.8025 35.4823 29.4362 35.0801 29.95C34.8758 30.171 34.6262 30.3453 34.3483 30.4609C34.0704 30.5766 33.7709 30.6308 33.4701 30.62C33.0657 30.6234 32.668 30.5162 32.3201 30.31V30.32ZM34.1601 29.21C34.3399 28.8866 34.4264 28.5197 34.4101 28.15C34.4302 27.78 34.3434 27.412 34.1601 27.09C34.0852 26.9762 33.9826 26.8834 33.8618 26.8204C33.7411 26.7574 33.6062 26.7263 33.4701 26.73C33.3364 26.726 33.2038 26.756 33.0849 26.8172C32.966 26.8785 32.8645 26.9689 32.7901 27.08C32.6009 27.4034 32.5138 27.7763 32.5401 28.15C32.5133 28.5206 32.6005 28.8905 32.7901 29.21C32.8663 29.3214 32.9685 29.4125 33.0879 29.4755C33.2072 29.5384 33.3401 29.5713 33.4751 29.5713C33.61 29.5713 33.7429 29.5384 33.8623 29.4755C33.9817 29.4125 34.0839 29.3214 34.1601 29.21Z" fill="#A2AAAD"/>
</g>
<defs>
<clipPath id="clip0">
<rect width="42.83" height="30.11" fill="white" transform="translate(0 0.550003)"/>
</clipPath>
</defs>
</svg>
