<svg xmlns="http://www.w3.org/2000/svg" viewBox="0 0 39.66 27.44"><defs><style>.cls-1{fill:#00a504;}</style></defs><g id="Layer_2" data-name="Layer 2"><g id="Слой_2" data-name="Слой 2"><path class="cls-1" d="M19.84,27.44A3.15,3.15,0,1,1,23,24.29,3.18,3.18,0,0,1,19.84,27.44Z"/><path class="cls-1" d="M19.83,10.06a15.6,15.6,0,0,0-11.36,4.8.56.56,0,0,0,.08.82L12,18.3a.55.55,0,0,0,.74-.06,10,10,0,0,1,14.22,0,.55.55,0,0,0,.74.06l3.43-2.62a.56.56,0,0,0,.08-.82A15.6,15.6,0,0,0,19.83,10.06Z"/><path class="cls-1" d="M.22,9.32,3.76,12A.55.55,0,0,0,4.5,12,20.73,20.73,0,0,1,19.83,5.35,20.73,20.73,0,0,1,35.16,12a.55.55,0,0,0,.74.07l3.54-2.71a.56.56,0,0,0,.08-.82A26.6,26.6,0,0,0,19.83,0,26.6,26.6,0,0,0,.14,8.5.56.56,0,0,0,.22,9.32Z"/></g></g></svg>