<svg xmlns="http://www.w3.org/2000/svg" viewBox="0 0 28.03 24.52"><defs><style>.cls-1{fill:#a2aaad;}</style></defs><g id="Layer_2" data-name="Layer 2"><g id="Слой_2" data-name="Слой 2"><path class="cls-1" d="M13.24,19.35a1,1,0,0,1-.31-.76,1,1,0,0,1,.31-.75,1.09,1.09,0,0,1,.79-.3,1,1,0,0,1,.76.3,1,1,0,0,1,.31.75,1,1,0,0,1-.31.76,1,1,0,0,1-.76.3A1.09,1.09,0,0,1,13.24,19.35ZM13,10h2l-.34,6.36H13.35Z"/><path class="cls-1" d="M27.9,23.13,14.81.46a.92.92,0,0,0-1.59,0L.12,23.13a.93.93,0,0,0,.8,1.39H27.1A.93.93,0,0,0,27.9,23.13Zm-4.79-1.26H4.91a.64.64,0,0,1-.55-1l9.1-15.76a.64.64,0,0,1,1.11,0l9.1,15.76A.65.65,0,0,1,23.11,21.87Z"/></g></g></svg>